<svg width="60" height="60" viewBox="0 0 60 60" fill="none" xmlns="http://www.w3.org/2000/svg">
<circle cx="30.0138" cy="30.0128" r="18.7593" fill="black"/>
<path fill-rule="evenodd" clip-rule="evenodd" d="M18.3224 57.643C22.0164 59.2066 25.9882 60.008 29.9996 59.999C34.0112 60.0083 37.9834 59.2069 41.6777 57.643C45.2416 56.1365 48.4801 53.9541 51.2144 51.2165C53.9528 48.4826 56.1356 45.244 57.642 41.6798C59.2055 37.9857 60.0075 34.014 60 30.0026C60.0077 25.9909 59.2057 22.0189 57.642 18.3244C56.1367 14.7596 53.9538 11.5208 51.2144 8.78775C48.4818 6.04734 45.2429 3.86371 41.6777 2.35814C37.9836 0.79354 34.0114 -0.00850726 29.9996 0.000137183C25.9881 -0.0083703 22.0162 0.793674 18.3224 2.35814C14.7573 3.86328 11.5187 6.04697 8.78671 8.78775C6.04616 11.5203 3.86252 14.7592 2.3571 18.3244C0.793843 22.019 -0.00781707 25.991 0.000115757 30.0026C-0.00759665 34.0139 0.794057 37.9855 2.3571 41.6798C3.86359 45.2445 6.0471 48.4832 8.78671 51.2165C11.5205 53.9542 14.7587 56.1366 18.3224 57.643ZM23.9104 23.4785C23.9127 22.5175 24.6915 21.7391 25.6525 21.7374C25.9578 21.7372 26.2576 21.8189 26.5205 21.9742L37.8318 28.5228C38.3719 28.8307 38.7038 29.4063 38.6998 30.028C38.7037 30.6492 38.3718 31.2241 37.8318 31.5313L26.5205 38.0828C26.2571 38.237 25.9577 38.3187 25.6525 38.3196C24.6903 38.318 23.911 37.5378 23.9104 36.5755V23.4785Z" fill="white"/>
</svg>
