<svg width="17" height="18" viewBox="0 0 17 18" fill="none" xmlns="http://www.w3.org/2000/svg">
<g opacity="0.503">
<path fill-rule="evenodd" clip-rule="evenodd" d="M0.5 3V15C0.5 16.3807 1.61929 17.5 3 17.5C4.38071 17.5 5.5 16.3807 5.5 15V3C5.5 1.61929 4.38071 0.5 3 0.5C1.61929 0.5 0.5 1.61929 0.5 3ZM11.5 3V15C11.5 16.3807 12.6193 17.5 14 17.5C15.3807 17.5 16.5 16.3807 16.5 15V3C16.5 1.61929 15.3807 0.5 14 0.5C12.6193 0.5 11.5 1.61929 11.5 3Z" fill="white"/>
<path d="M1 15V3H0V15H1ZM3 17C1.89543 17 1 16.1046 1 15H0C0 16.6569 1.34315 18 3 18V17ZM5 15C5 16.1046 4.10457 17 3 17V18C4.65685 18 6 16.6569 6 15H5ZM5 3V15H6V3H5ZM3 1C4.10457 1 5 1.89543 5 3H6C6 1.34315 4.65685 0 3 0V1ZM1 3C1 1.89543 1.89543 1 3 1V0C1.34315 0 0 1.34315 0 3H1ZM12 15V3H11V15H12ZM14 17C12.8954 17 12 16.1046 12 15H11C11 16.6569 12.3431 18 14 18V17ZM16 15C16 16.1046 15.1046 17 14 17V18C15.6569 18 17 16.6569 17 15H16ZM16 3V15H17V3H16ZM14 1C15.1046 1 16 1.89543 16 3H17C17 1.34315 15.6569 0 14 0V1ZM12 3C12 1.89543 12.8954 1 14 1V0C12.3431 0 11 1.34315 11 3H12Z" fill="black" fill-opacity="0.01"/>
</g>
</svg>
