<svg width="69" height="69" viewBox="0 0 69 69" fill="none" xmlns="http://www.w3.org/2000/svg">
<path fill-rule="evenodd" clip-rule="evenodd" d="M21.0711 66.29C25.3195 68.0877 29.887 69.0095 34.5 69C39.113 69.0091 43.6802 68.0867 47.928 66.288C52.0272 64.5552 55.7518 62.0446 58.896 58.895C62.046 55.7519 64.5567 52.0279 66.289 47.9291C68.0865 43.6806 69.0086 39.1132 69 34.5001C69.0086 29.8877 68.0869 25.321 66.29 21.0731C64.558 16.9741 62.0473 13.25 58.897 10.1071C55.7543 6.95545 52.0293 4.44428 47.929 2.71316C43.6811 0.913711 39.1134 -0.00907533 34.5 0.000161771C29.887 -0.00990096 25.3194 0.911505 21.0711 2.70916C16.9714 4.4403 13.247 6.95149 10.1051 10.1031C6.95456 13.246 4.44352 16.9701 2.71112 21.0691C0.913336 25.3182 -0.00872314 29.8863 0.000125278 34.5001C-0.00872314 39.1138 0.913336 43.682 2.71112 47.9311C4.44386 52.0299 6.95485 55.754 10.1051 58.897C13.2483 62.0469 16.9723 64.5575 21.0711 66.29ZM27.5001 27.0001C27.5034 25.8969 28.3969 25.0034 29.5001 25.0001C29.8511 24.9976 30.1963 25.0891 30.5001 25.2651L43.509 32.7971C44.1309 33.1508 44.5133 33.8127 44.509 34.5281C44.5129 35.2431 44.1306 35.9046 43.509 36.2581L30.5001 43.7911C30.1968 43.9688 29.8516 44.0623 29.5001 44.0621C28.3969 44.0588 27.5034 43.1653 27.5001 42.0621V27.0001Z" fill="white"/>
</svg>
